<?xml version="1.0" encoding="UTF-8"?>
<!DOCTYPE svg PUBLIC "-//W3C//DTD SVG 1.1//EN" "http://www.w3.org/Graphics/SVG/1.1/DTD/svg11.dtd">
<!-- Creator: CorelDRAW 2020 (64 Bit) -->
<svg xmlns="http://www.w3.org/2000/svg" xml:space="preserve" width="15.1698mm" height="15.1698mm" version="1.1" style="shape-rendering:geometricPrecision; text-rendering:geometricPrecision; image-rendering:optimizeQuality; fill-rule:evenodd; clip-rule:evenodd"
viewBox="0 0 1516.98 1516.98"
 xmlns:xlink="http://www.w3.org/1999/xlink"
 xmlns:xodm="http://www.corel.com/coreldraw/odm/2003">
 <defs>
  <style type="text/css">
   <![CDATA[
    .fil0 {fill:#9A3133;fill-rule:nonzero}
   ]]>
  </style>
 </defs>
 <g id="Camada_x0020_1">
  <metadata id="CorelCorpID_0Corel-Layer"/>
  <g id="_2271606133904">
   <path class="fil0" d="M1508.34 674.89c3.25,6.86 5.07,14.53 5.07,22.62l0 64.91 -0.1 0c-0.01,9.85 -0.21,19.73 -0.6,29.61 -3.24,81.64 -19.64,161.72 -48.08,237.24 -10.35,27.49 -22.31,54.36 -35.82,80.52l-1.22 2.38 -0.52 0.99 -1.24 2.37 -0.53 0.99 -1.24 2.36 -0.54 1 -1.26 2.34c-17.58,32.66 -37.55,64.03 -59.85,93.87 -48.97,65.51 -107.91,122.25 -174.17,168.39 -66.07,46 -139.73,81.53 -218.37,104.78 -78.26,23.13 -159.32,33.31 -240.01,30.64 -28.65,-0.95 -57.23,-3.51 -85.57,-7.68 -7.51,1.39 -15.43,1.17 -23.29,-0.94l-62.7 -16.8 0.01 -0.02c-22.28,-5.97 -44.34,-12.97 -66.07,-21 -76.4,-28.22 -147.51,-68.65 -210.84,-119.3l-5.06 -4.09 -0.84 -0.68 -2.1 -1.72 -0.83 -0.68 -2.1 -1.74 -0.82 -0.68 -2.09 -1.75 -0.82 -0.68 -2.09 -1.76 -0.8 -0.69c-38.32,-32.52 -73.44,-68.82 -104.68,-108.48 -50.6,-64.26 -90.15,-135.88 -117.57,-211.82 -13.83,-38.28 -24.55,-77.76 -32.05,-118.02l-0.45 -2.39 -0.24 -1.34 -0.44 -2.4 -0.23 -1.32 -0.42 -2.42 -0.23 -1.32 -0.41 -2.43 -0.22 -1.3 -0.4 -2.45c-9.25,-56.51 -12.12,-114.11 -8.31,-171.72 5.39,-81.78 23.87,-161.45 54.25,-236.08 14.6,-35.88 31.99,-70.65 52,-104.02l0.13 -0.23 0.36 -0.6 1.61 -2.66 0.36 -0.59 1.62 -2.66 0.36 -0.58 3.65 -5.89 0.36 -0.56c7.31,-11.64 14.93,-23.08 22.89,-34.33 15.63,-22.1 32.41,-43.27 50.25,-63.48l1.84 -2.09 0.7 -0.78 1.84 -2.05 0.72 -0.81 1.82 -2.01 0.75 -0.83 1.81 -1.98c49.35,-53.97 105.86,-100.15 167.64,-137.41 42.92,-25.9 88.52,-47.54 136.12,-64.56l0.52 -0.19 3.07 -1.09 0.51 -0.18 3.09 -1.08 0.51 -0.18 3.1 -1.06 0.5 -0.17 3.12 -1.06 0.49 -0.16 3.14 -1.04 0.48 -0.16 3.15 -1.03 0.48 -0.15 3.17 -1.02 0.46 -0.14c76.5,-24.33 155.94,-36.25 235.27,-35.68 80.83,0.56 161.4,13.97 238.56,40.19 77.6,26.37 149.77,64.84 213.99,113.5 64.27,48.68 120.85,107.76 167.24,175.31 46.36,67.51 81.17,141.5 103.52,218.91 11.61,40.21 19.88,81.44 24.69,123.29zm-487.74 -509.19l-0.41 -0.18 -2.6 -1.15 -0.4 -0.18 -2.62 -1.14 -0.38 -0.17 -2.65 -1.13 -0.36 -0.16 -2.67 -1.13 -0.34 -0.15 -2.69 -1.12 -0.34 -0.14 -2.71 -1.12 -0.32 -0.13 -2.72 -1.11 -0.31 -0.13 -2.74 -1.09 -0.31 -0.13 -2.75 -1.08 -0.3 -0.12 -2.76 -1.07 -0.3 -0.12 -2.77 -1.05 -0.29 -0.12 -2.78 -1.04 -3.08 -1.15 -0.29 -0.11 -2.79 -1.02 -0.3 -0.11 -2.78 -1 -0.31 -0.11 -2.78 -0.99 -0.32 -0.11 -2.78 -0.97 -0.32 -0.11 -2.78 -0.95 -0.33 -0.12 -2.77 -0.93 -0.37 -0.13 -2.74 -0.91 -0.4 -0.13 -2.71 -0.88 -0.43 -0.14 -2.69 -0.86 -0.46 -0.15 -2.66 -0.84 -0.49 -0.15 -2.64 -0.82 -0.52 -0.16 -2.61 -0.79 -0.55 -0.17 -2.58 -0.77 -0.58 -0.17 -2.56 -0.75 -0.61 -0.18 -2.53 -0.73 -0.63 -0.18 -2.52 -0.71 -0.66 -0.18 -2.49 -0.69 -0.68 -0.19 -2.47 -0.67 -0.71 -0.19 -2.45 -0.66 -0.73 -0.19 -2.43 -0.63 -0.76 -0.2 -2.4 -0.61 -0.78 -0.2 -2.39 -0.6 -0.8 -0.2 -2.37 -0.57 -2.82 -0.69 -0.35 -0.08 -0.85 -0.2 -2.33 -0.54 -3.18 -0.73 -0.89 -0.21 -2.29 -0.51c-25.48,-5.66 -51.25,-9.77 -77.2,-12.32 -69.14,-6.82 -139.43,-2.61 -208.11,12.9 -68.41,15.46 -133.64,41.89 -193.31,77.9 -51.23,30.9 -98.16,68.79 -139.3,112.69l-0.16 0.16 -2.08 2.24 -0.15 0.15 -2.07 2.26 -0.15 0.16 -2.07 2.27 -0.13 0.15 -2.07 2.29 -0.12 0.14c-16.78,18.7 -32.55,38.46 -47.21,59.21 -13.19,18.64 -25.33,37.86 -36.43,57.57l-0.51 0.92 -1.08 1.93 -0.51 0.94 -1.58 2.87 -1.05 1.91 -0.52 0.97 -1.02 1.9 -0.53 0.99 -1 1.89c-10.15,19.22 -19.35,38.95 -27.55,59.09 -18.87,46.34 -32.42,94.78 -40.25,144.36l-0.12 0.73 -0.38 2.5 -0.11 0.73 -0.38 2.51 -0.1 0.72 -0.37 2.52 -0.1 0.72 -0.35 2.53 -0.1 0.71 -0.34 2.53 -0.09 0.71 -0.33 2.54 -0.08 0.71c-4.08,32.47 -5.73,65.36 -4.89,98.41 1.79,70.1 14.99,139.22 38.64,204.75 23.59,65.33 57.61,126.91 101.11,182.16 43.79,55.61 95.64,103.18 153.27,141.19 15.97,10.53 32.4,20.37 49.25,29.47l1.11 0.59 5.76 3.06 1.81 0.94 1.08 0.57 1.83 0.94 1.07 0.55 1.84 0.94 1.07 0.54 1.86 0.93c21.5,10.77 43.69,20.37 66.48,28.8 18.8,6.95 37.83,13.01 57.03,18.17l0.04 -0.16 15.12 4.05c43.6,10.63 87.97,16.7 132.35,18.18 69.41,2.3 139.31,-6.51 206.95,-26.5 67.25,-19.88 130.6,-50.52 187.77,-90.32 57,-39.69 107.68,-88.49 149.79,-144.81 28.47,-38.09 52.5,-78.75 71.82,-121.21l0.19 -0.4 1.15 -2.56 0.19 -0.42 1.13 -2.55 0.19 -0.42 1.12 -2.56 0.18 -0.43 1.11 -2.55 0.18 -0.44c3.86,-8.98 7.51,-18.05 10.95,-27.2 20.27,-53.84 33.45,-110.41 38.96,-168.22l0.23 -2.34 0.08 -0.93 0.28 -3.28 0.2 -2.33 0.07 -0.94 0.19 -2.33 0.07 -0.96 0.17 -2.31 0.07 -0.97 0.16 -2.31 0.06 -0.98 0.15 -2.3 0.05 -0.98 0.14 -2.3 0.05 -0.99 0.12 -2.29 0.16 -3.29 0.05 -1.01 0.1 -2.27 0.04 -1.03 0.08 -2.26 0.04 -1.02 0.07 -2.27 0.23 -9.88 0.02 -0.99 0.02 -2.31 0.03 -3.3 0.01 -0.95 0 -2.35 -0.21 0 0 -17.32c-1.46,-55.69 -10.09,-110.89 -25.5,-164.23 -19.31,-66.89 -49.23,-130.6 -88.98,-188.47 -39.73,-57.86 -88.43,-108.64 -143.89,-150.65 -39.76,-30.13 -82.9,-55.68 -128.6,-76.05z"/>
   <g>
    <path class="fil0" d="M430.73 1163.37c-20.55,20.66 -53.96,20.75 -74.62,0.2 -20.66,-20.55 -20.75,-53.96 -0.2,-74.62 240.84,-243.49 481.03,-485.77 723.33,-728.31 20.55,-20.66 53.96,-20.75 74.62,-0.2 20.66,20.55 20.75,53.96 0.2,74.62l-723.33 728.31z"/>
    <path class="fil0" d="M1079.25 1163.37c20.55,20.66 53.96,20.75 74.62,0.2 20.66,-20.55 20.75,-53.96 0.2,-74.62 -240.84,-243.49 -481.03,-485.77 -723.33,-728.31 -20.55,-20.66 -53.96,-20.75 -74.62,-0.2 -20.66,20.55 -20.75,53.96 -0.2,74.62l723.33 728.31z"/>
   </g>
  </g>
 </g>
</svg>
